# xmcd
#
# Track frame offsets:
#	150
#	19505
#	35483
#	81140
#	94870
#	113689
#	130819
#	150011
#	170896
#	196927
#	217552
#	247518
#	266122
#	305424
#	321626
#	342404
#
# Disc length: 4794 seconds
#
# Revision: 0
# Processed by: cddbd v1.5.2PL0 Copyright (c) Steve Scherf et al.
# Submitted via: EasyCDDAExtractor 8.2.3.1
#
DISCID=cb12b810
DTITLE=Various Artist - GOOD WHISKEY BLUES   bottle 7
DYEAR=2005
DGENRE=Blues
TTITLE0=STEN WEBB - Koko Road
TTITLE1=RONANDER BLUES - I Can't Be Satisfied
TTITLE2=ENGERLING - Holl Blues
TTITLE3=LEE BAKER and The AGITATORS - Linda You
TTITLE4=The TEXAS TRUMPETS - Last Night
TTITLE5=DOUBLE TWISTERS - Never for Get You
TTITLE6=BLUESIX - Drinking Wine Spo-Dee-O-Dee
TTITLE7=D-TRAIN - Fight
TTITLE8=''SIR'' OLIVER MALLY - Blue Raindrops
TTITLE9=BEST and BLUES POWER - Catfish Blues
TTITLE10=TIM BROCKS - Blind Willie Metel
TTITLE11=RONANDER BLUES - Early in the Morning
TTITLE12=J.W. JONES BLUES BAND - Whitting Around
TTITLE13=LEE BAKER and The AGITATORS - You Can't Catch Me
TTITLE14=MIKE MORGAN and JIM SUHLER - You Hurt Me
TTITLE15=MASON CASEY - Out of Control
EXTD=
EXTT0=
EXTT1=
EXTT2=
EXTT3=
EXTT4=
EXTT5=
EXTT6=
EXTT7=
EXTT8=
EXTT9=
EXTT10=
EXTT11=
EXTT12=
EXTT13=
EXTT14=
EXTT15=
PLAYORDER=
